<svg width="420" height="360" viewBox="0 0 420 360"
     xmlns="http://www.w3.org/2000/svg" font-family="'Fira Code', 'Courier New', monospace">

  <!-- background -->
  <rect width="420" height="360" rx="12" fill="#ffffff" stroke="#d0d7de" stroke-width="1.2"/>

  <!-- header bar -->
  <rect x="0" y="0" width="420" height="52" rx="12" fill="#1a7f37" opacity="0.08"/>
  <rect x="0" y="40" width="420" height="12" fill="#1a7f37" opacity="0.08"/>

  <!-- title -->
  <text x="26" y="32" font-size="15" font-weight="700" fill="#1a7f37" letter-spacing="1">
    ▸ chmosama / stats.sh
  </text>
  <text x="340" y="32" font-size="10" fill="#57606a" text-anchor="end">
    26 Jun 2026, 17:44 UTC
  </text>

  <!-- prompt line -->
  <text x="26" y="62" font-size="11" fill="#57606a">$ ./stats --user chmosama --year 2026</text>

  
  <text x="52" y="88" font-size="13" fill="#57606a">📁  Public Repos</text>
  <text x="370" y="88" font-size="13" fill="#1a7f37" text-anchor="end" font-weight="600">14</text>
  <line x1="52" y1="94" x2="370" y2="94" stroke="#d0d7de" stroke-width="0.4"/>
  <text x="52" y="116" font-size="13" fill="#57606a">👥  Followers</text>
  <text x="370" y="116" font-size="13" fill="#1a7f37" text-anchor="end" font-weight="600">25</text>
  <line x1="52" y1="122" x2="370" y2="122" stroke="#d0d7de" stroke-width="0.4"/>
  <text x="52" y="144" font-size="13" fill="#57606a">👣  Following</text>
  <text x="370" y="144" font-size="13" fill="#1a7f37" text-anchor="end" font-weight="600">58</text>
  <line x1="52" y1="150" x2="370" y2="150" stroke="#d0d7de" stroke-width="0.4"/>
  <text x="52" y="172" font-size="13" fill="#57606a">💻  Commits (2026)</text>
  <text x="370" y="172" font-size="13" fill="#1a7f37" text-anchor="end" font-weight="600">111</text>
  <line x1="52" y1="178" x2="370" y2="178" stroke="#d0d7de" stroke-width="0.4"/>
  <text x="52" y="200" font-size="13" fill="#57606a">🔀  PRs Merged (all time)</text>
  <text x="370" y="200" font-size="13" fill="#1a7f37" text-anchor="end" font-weight="600">175</text>
  <line x1="52" y1="206" x2="370" y2="206" stroke="#d0d7de" stroke-width="0.4"/>
  <text x="52" y="228" font-size="13" fill="#57606a">🐛  Open Issues</text>
  <text x="370" y="228" font-size="13" fill="#1a7f37" text-anchor="end" font-weight="600">3</text>
  <line x1="52" y1="234" x2="370" y2="234" stroke="#d0d7de" stroke-width="0.4"/>
  <text x="52" y="256" font-size="13" fill="#57606a">🟩  Contributions (2026)</text>
  <text x="370" y="256" font-size="13" fill="#1a7f37" text-anchor="end" font-weight="600">176</text>
  <line x1="52" y1="262" x2="370" y2="262" stroke="#d0d7de" stroke-width="0.4"/>
  <text x="52" y="284" font-size="13" fill="#57606a">🗂️  Repos Contributed To</text>
  <text x="370" y="284" font-size="13" fill="#1a7f37" text-anchor="end" font-weight="600">3</text>
  <line x1="52" y1="290" x2="370" y2="290" stroke="#d0d7de" stroke-width="0.4"/>
  <text x="52" y="312" font-size="13" fill="#57606a">🕰️  GitHub Age</text>
  <text x="370" y="312" font-size="13" fill="#0969da" text-anchor="end" font-weight="600">12.1 years</text>
  <line x1="52" y1="318" x2="370" y2="318" stroke="#d0d7de" stroke-width="0.4"/>

  <!-- footer -->
  <text x="210" y="348" font-size="9" fill="#57606a" text-anchor="middle">
    auto-generated · github.com/chmosama
  </text>
</svg>